<svg width="43" height="29" viewBox="0 0 43 29" fill="none" xmlns="http://www.w3.org/2000/svg">
<g clip-path="url(#clip0)" filter="url(#filter0_d)">
<path d="M15.5 13.9C16 13.6 16.5 13.4 17 13.1C17 13.1 17.1 13.1 17.1 13C17.2 13.1 17.3 13.2 17.4 13.3C17.8 13.7 18.2 14 18.6 14.3C19 14.6 19.4 15 19.8 15.3C20.2 15.6 20.6 16 21 16.3C21.9 17 22.9 17.7 23.8 18.4C24.3 18.7 24.7 19.1 25.2 19.4C25.6 19.7 26.1 19.9 26.5 20.1C27.6 20.6 28.6 21.2 29.7 21.6C30.2 21.8 30.7 22 31.3 22.1C31.7 22.2 32 22.3 32.4 22.3C32.7 22.3 33.1 22.3 33.4 22.3C33.5 22.3 33.6 22.3 33.7 22.2C33.8 22.2 34 22.1 34.1 22C34.2 22 34.3 22 34.4 21.9C34.5 21.9 34.6 21.9 34.8 21.9C35.3 21.8 35.8 21.7 36.2 21.3C36.4 21 36.5 20.8 36.5 20.4C36.5 20.2 36.4 19.9 36.3 19.7C36.2 19.5 36 19.3 35.8 19.1C35.6 18.9 35.4 18.7 35.1 18.6C34.9 18.4 34.7 18.2 34.5 18C33.7 17.3 32.9 16.7 32.1 16C31.3 15.3 30.5 14.5 29.8 13.7C29.1 12.9 28.4 12.1 27.7 11.3C27 10.5 26.4 9.69999 25.7 8.89999C25.1 8.09999 24.5 7.19999 23.9 6.29999C23.6 5.79999 23.3 5.29999 23 4.89999C22.8 4.39999 22.5 3.99999 22.2 3.59999C22 3.29999 21.8 2.99999 21.5 2.69999C21.2 2.49999 21 2.19999 20.6 2.09999C20.2 1.99999 19.8 1.99999 19.4 2.09999C18.9 2.29999 18.6 2.59999 18.2 2.89999C18 3.09999 17.8 3.19999 17.6 3.39999C17.2 3.69999 16.8 4.09999 16.4 4.49999C16.1 4.79999 15.7 5.09999 15.4 5.29999C14.7 5.79999 14 6.29999 13.4 6.79999C13 7.09999 12.6 7.39999 12.2 7.79999C11.9 7.99999 11.7 8.29999 11.4 8.59999C11 8.99999 10.7 9.39999 10.4 9.69999C10.2 9.79999 10 9.99999 9.9 10.1C9.6 10.3 9.4 10.5 9.1 10.7C8.5 11.2 7.9 11.8 7.3 12.3C7 12.6 6.7 12.9 6.4 13.2C6.2 13.4 6.1 13.5 5.9 13.7C5.7 13.9 5.5 14 5.4 14.2C5.2 14.4 5.1 14.6 5 14.8C4.9 14.9 4.9 15.1 4.9 15.3C4.8 15.4 4.7 15.5 4.6 15.6C4.2 16 3.9 16.3 3.6 16.7C3.4 17 3.1 17.3 2.9 17.6C2.6 18 2.3 18.5 2.3 19.1C2.3 19.4 2.4 19.6 2.6 19.9C2.7 20 2.9 20.1 3.1 20.2C3.7 20.4 4.2 20.1 4.7 19.8C4.9 19.7 5.2 19.5 5.4 19.4C5.8 19.2 6.3 18.9 6.7 18.7C7.7 18.2 8.6 17.8 9.6 17.3C10.6 16.8 11.6 16.3 12.6 15.7C13.3 15.1 14.4 14.5 15.5 13.9ZM20.6 5.39999C20.8 5.79999 21.1 6.19999 21.3 6.59999L21.2 6.59999C21 6.49999 20.8 6.49999 20.6 6.39999C20.6 6.39999 20.6 6.39999 20.6 6.29999C20.7 6.09999 20.6 5.79999 20.5 5.59999C20.6 5.49999 20.6 5.49999 20.6 5.39999ZM25.8 15.8C26 15.7 26.2 15.6 26.3 15.5C26.4 15.6 26.6 15.8 26.7 15.9C27.1 16.2 27.5 16.5 27.9 16.8C28.3 17.1 28.8 17.4 29.2 17.7C29.4 17.8 29.6 18 29.9 18.1C29.4 17.9 28.9 17.6 28.3 17.4C27.7 17.1 27 16.8 26.4 16.4C26.2 16.1 26 16 25.8 15.8ZM22.2 7.99999C22.9 9.09999 23.7 10.2 24.5 11.3C24.4 11.2 24.2 11 24.1 10.9C23.5 10.3 22.9 9.69999 22.3 9.09999C22.1 8.89999 21.9 8.79999 21.7 8.59999C21.7 8.59999 21.7 8.59999 21.7 8.49999C21.8 8.29999 22 7.99999 22 7.69999C22 7.79999 22.1 7.89999 22.2 7.99999ZM20.5 12.1C20.6 12.2 20.6 12.2 20.7 12.3C20.7 12.3 20.6 12.3 20.6 12.2C20.6 12.2 20.5 12.2 20.5 12.1C20.4 12 20.2 11.9 20.1 11.8C20.1 11.7 20.2 11.7 20.2 11.6C20.3 11.8 20.4 12 20.5 12.1ZM14.1 13C13.8 13.2 13.5 13.3 13.1 13.5C12.1 14 11.2 14.5 10.2 15C8.9 15.6 7.6 16.2 6.3 16.8C6.7 16.4 7.2 16 7.6 15.6C7.7 15.5 7.9 15.3 8 15.2C8.1 15.3 8.3 15.4 8.5 15.5C8.8 15.6 9 15.5 9.2 15.4C9.5 15.3 9.7 15.1 9.9 15C10.1 14.8 10.4 14.6 10.6 14.4C10.7 14.3 10.9 14.2 11 14C11.3 13.8 11.6 13.5 11.9 13.3C12.6 12.7 13.2 12.2 13.9 11.6C14.1 11.4 14.4 11.2 14.6 10.9C14.6 11 14.5 11.2 14.4 11.3C14.2 11.6 13.9 12 13.9 12.5C13.9 12.6 13.9 12.7 14 12.8C14 12.9 14 13 14.1 13Z" fill="#E16163"/>
</g>
<defs>
<filter id="filter0_d" x="0" y="0" width="42.5" height="28.4" filterUnits="userSpaceOnUse" color-interpolation-filters="sRGB">
<feFlood flood-opacity="0" result="BackgroundImageFix"/>
<feColorMatrix in="SourceAlpha" type="matrix" values="0 0 0 0 0 0 0 0 0 0 0 0 0 0 0 0 0 0 127 0"/>
<feOffset dx="2" dy="2"/>
<feGaussianBlur stdDeviation="2"/>
<feColorMatrix type="matrix" values="0 0 0 0 0 0 0 0 0 0 0 0 0 0 0 0 0 0 0.25 0"/>
<feBlend mode="normal" in2="BackgroundImageFix" result="effect1_dropShadow"/>
<feBlend mode="normal" in="SourceGraphic" in2="effect1_dropShadow" result="shape"/>
</filter>
<clipPath id="clip0">
<rect width="20.4" height="34.5" fill="white" transform="translate(36.5 2) rotate(90)"/>
</clipPath>
</defs>
</svg>
